<?xml version="1.0" encoding="UTF-8"?>
<svg id="Layer_2" data-name="Layer 2" xmlns="http://www.w3.org/2000/svg" viewBox="0 0 801.21 522.36">
  <defs>
    <style>
      .cls-1 {
        fill: #c7d1c8;
      }

      .cls-2 {
        fill: #8a9a8e;
      }

      .cls-3 {
        fill: #5a6f60;
      }
    </style>
  </defs>
  <g id="Layer_03" data-name="Layer 03">
    <g>
      <path class="cls-1" d="M310.19,377.68c1.23,2.42,2.49,4.83,3.8,7.21.65,1.19,1.31,2.38,1.98,3.56,0,0,.01.02.02.03,0,0,0,0,0,0,0,0,0,0,0,0,0,0,0,0,0,0,0,0,0,0,0,0h-.01s-.04.02-.06.03c-.04.02-.08.03-.11.05-.08.03-.15.07-.23.1-.15.07-.31.13-.46.2-.31.13-.62.26-.93.39-.62.26-1.24.51-1.87.76-5.07,2.01-10.25,3.72-15.52,5.12-10.85,2.88-22.01,4.44-33.23,4.63-22.63.39-45.01-4.77-65.19-15.03-2.43-1.24-4.82-2.54-7.17-3.92-1.17-.68-2.32-1.38-3.46-2.09-1.14-.71-2.26-1.44-3.38-2.18-4.52-3.01-8.86-6.28-12.99-9.8-8.53-7.26-16.15-15.52-22.69-24.62-13.24-18.41-21.77-39.79-24.82-62.27-.73-5.4-1.15-10.83-1.24-16.27-.02-1.34-.03-2.68-.01-4.02.02-1.35.05-2.69.11-4.04.11-2.72.3-5.43.57-8.13,1.11-11.11,3.56-22.05,7.3-32.57,7.6-21.4,20.34-40.61,37.1-55.93,4.04-3.69,8.29-7.14,12.74-10.33,1.09-.78,2.2-1.55,3.31-2.3,1.11-.75,2.23-1.48,3.37-2.2,2.29-1.45,4.61-2.82,6.98-4.14,9.74-5.39,20.09-9.59,30.83-12.5,21.94-5.95,45.01-6.41,67.17-1.35,7.04,1.61,13.94,3.77,20.65,6.45.82.33,1.64.67,2.46,1.01.2.09.41.17.61.26.05.02.1.04.15.07.01,0,.03.01.04.02,0,0,0,0,0,0,0,0,0,0,0,0,0,0,0,0,0,0,0,0,0,0,0,0h0s0,.01-.01.02c-.01.02-.03.05-.04.07-.06.1-.11.19-.17.29-.22.39-.44.78-.66,1.17-.87,1.56-1.73,3.14-2.57,4.72-.42.79-.84,1.59-1.25,2.38-.21.4-.41.8-.62,1.19-.1.2-.2.4-.31.6-.05.1-.1.2-.15.3,0,.01-.01.03-.02.04,0,0,0,0,0,0,0,0,0,0,0,0,0,0,0,0,0,0,0,0,0,0-.01,0-.02,0-.04-.01-.05-.02-.04-.01-.07-.03-.11-.04-1.13-.47-2.27-.93-3.42-1.38-9.44-3.63-19.27-6.12-29.3-7.41-20.65-2.65-41.64-.16-61.1,7.25-5.17,1.97-10.21,4.28-15.07,6.91-2.39,1.29-4.73,2.65-7.03,4.1-2.28,1.43-4.51,2.93-6.69,4.5-9,6.47-17.11,14.1-24.12,22.69-14.37,17.61-23.73,38.77-27.09,61.26-.81,5.4-1.26,10.85-1.36,16.31-.02,1.34-.03,2.68-.01,4.03.02,1.35.06,2.7.12,4.05.12,2.73.34,5.44.63,8.16,1.23,11.15,3.94,22.08,8.06,32.52,4.18,10.6,9.78,20.58,16.64,29.68,6.72,8.91,14.59,16.9,23.4,23.74,2.14,1.66,4.33,3.25,6.57,4.77,2.23,1.52,4.51,2.96,6.84,4.33,4.75,2.79,9.67,5.27,14.74,7.42,10.42,4.42,21.39,7.42,32.61,8.93,11.28,1.51,22.71,1.49,33.98-.06,10.93-1.5,21.62-4.43,31.79-8.71Z"/>
      <path class="cls-1" d="M331.01,411.87c2.12,2.94,4.3,5.84,6.55,8.69.28.36.56.71.84,1.07.04.04.07.09.11.13,0,.01.02.02.03.03,0,0,0,.01.01.02,0,0,0,0,0,0h0s0,0,0,0c0,0,0,0,0,0,0,0,0,0,0,0-.03.01-.05.02-.07.04-.1.05-.2.1-.3.14-.2.1-.4.19-.6.28-.8.38-1.6.75-2.4,1.12-1.61.74-3.24,1.45-4.87,2.13-6.64,2.79-13.45,5.18-20.38,7.15-14.26,4.05-28.97,6.31-43.79,6.72-14.97.42-29.94-1.06-44.55-4.38-14.31-3.26-28.15-8.27-41.23-14.92-12.75-6.49-24.67-14.48-35.51-23.81-11.23-9.67-21.2-20.69-29.7-32.83-8.61-12.3-15.64-25.63-20.91-39.68-5.17-13.8-8.62-28.19-10.25-42.84-.4-3.57-.69-7.14-.87-10.72-.18-3.54-.25-7.07-.22-10.61.06-7.16.56-14.3,1.48-21.4,1.9-14.65,5.62-29.01,11.07-42.75,11.03-27.81,28.87-52.39,51.89-71.49,5.51-4.57,11.29-8.81,17.31-12.68,2.98-1.92,6-3.74,9.09-5.48,3.13-1.76,6.3-3.42,9.53-4.99,13.26-6.44,27.26-11.21,41.69-14.21,29.33-6.09,59.71-4.69,88.35,4.07,8.61,2.63,17.01,5.91,25.12,9.81l.09.04s.02,0,.02.01c0,0,0,0,0,0,0,0,0,0,0,0,0,0,0,0,0,0,0,0,0,0,0,0h0s-.02.04-.03.05c-.04.06-.09.11-.13.17-.09.11-.18.22-.27.34-.18.22-.35.45-.53.67-.35.45-.7.9-1.05,1.35-.7.9-1.39,1.81-2.08,2.72-.69.91-1.37,1.83-2.04,2.74-.34.46-.67.92-1.01,1.38l-.25.35c-.04.06-.08.12-.13.17,0,0,0,0,0,0,0,0,0,0,0,0h0s0,0,0,0c0,0-.01,0-.02,0-.01,0-.02-.01-.04-.02l-.07-.03c-.19-.09-.38-.17-.57-.26-3.05-1.4-6.14-2.7-9.27-3.91-12.9-4.98-26.38-8.34-40.11-9.98-28.11-3.37-56.62.51-82.81,11.27-6.69,2.75-13.19,5.93-19.47,9.52-6.17,3.53-12.11,7.46-17.77,11.75-11.72,8.89-22.21,19.29-31.2,30.94-18.29,23.72-29.82,51.93-33.38,81.67-.43,3.58-.74,7.16-.93,10.75-.19,3.55-.27,7.09-.24,10.64.07,7.18.61,14.34,1.61,21.45,2.06,14.69,6.09,29.04,11.96,42.67,5.95,13.8,13.74,26.72,23.17,38.42,9.21,11.43,19.88,21.58,31.76,30.2,1.44,1.05,2.9,2.07,4.38,3.07,1.47.99,2.95,1.96,4.44,2.91,3.01,1.9,6.08,3.71,9.21,5.42,6.38,3.48,12.99,6.54,19.77,9.16,13.94,5.38,28.54,8.85,43.4,10.32,14.93,1.48,29.99.93,44.77-1.64,14.32-2.49,28.24-6.84,41.43-12.95Z"/>
      <path class="cls-1" d="M366.75,70.47c-2.1,1.91-4.17,3.85-6.21,5.83-1.02.99-2.03,1.99-3.03,2.99,0,0-.02.02-.02.02h-.01s0,.01,0,.01c0,0,0,0,0,0,0,0,0,0,0,0-.01,0-.03-.02-.05-.02-.03-.02-.06-.03-.09-.05-.06-.03-.12-.06-.18-.1l-.36-.19c-.24-.13-.49-.25-.73-.38-.49-.25-.98-.5-1.46-.75-3.95-2.01-7.96-3.89-12.03-5.65-8.31-3.58-16.85-6.61-25.56-9.06-17.9-5.04-36.4-7.64-55-7.71-18.68-.07-37.27,2.39-55.28,7.34-17.44,4.79-34.17,11.85-49.76,21.01-3.85,2.26-7.61,4.64-11.31,7.15-3.75,2.54-7.41,5.21-10.98,7.99-7.28,5.67-14.17,11.83-20.62,18.43-13.21,13.51-24.49,28.77-33.53,45.36-9.02,16.55-15.73,34.27-19.93,52.65-2.05,8.95-3.49,18.03-4.32,27.18-.41,4.48-.67,8.97-.78,13.47-.11,4.46-.08,8.9.1,13.36.73,18.39,3.92,36.6,9.5,54.15,5.73,18.04,13.93,35.21,24.35,51.01,10.33,15.66,22.75,29.82,36.91,42.11,6.86,5.96,14.12,11.45,21.71,16.45,3.72,2.45,7.51,4.77,11.38,6.98,3.91,2.22,7.88,4.32,11.93,6.28,16.22,7.87,33.41,13.58,51.12,16.97,18.09,3.47,36.57,4.49,54.94,3.03,18.11-1.43,35.95-5.26,53.05-11.37,8.27-2.96,16.34-6.44,24.17-10.43.48-.25.96-.49,1.44-.74.24-.12.48-.25.72-.37.12-.06.24-.13.36-.19.06-.03.12-.06.18-.09.03-.02.06-.03.09-.05.01,0,.03-.02.04-.02,0,0,0,0,0,0,0,0,0,0,0,0,0,0,0,0,0,0,0,0,0,0,0,0,0,0,0,0,.01.01,0,0,.02.02.02.02.99.99,1.98,1.97,2.98,2.95,2.01,1.95,4.04,3.86,6.11,5.74.03.03.06.06.1.09.02.01.03.03.05.04,0,0,0,0,0,0,0,0,0,0,0,0,0,0,0,0,0,0,0,0,0,0,0,0,0,0,0,0-.01,0,0,0-.02.01-.03.02-.07.04-.15.08-.22.12-.15.08-.3.16-.45.25-.3.16-.6.33-.9.49-.6.33-1.2.65-1.8.97-1.21.64-2.43,1.27-3.65,1.89-2.46,1.25-4.94,2.45-7.45,3.6-16.78,7.71-34.47,13.26-52.65,16.52-18.63,3.33-37.61,4.23-56.47,2.66-18.69-1.55-37.1-5.51-54.78-11.78-8.59-3.05-16.98-6.63-25.12-10.73-3.99-2.01-7.91-4.13-11.77-6.38-1.92-1.12-3.82-2.26-5.7-3.44-1.9-1.18-3.77-2.4-5.63-3.64-15.3-10.22-29.25-22.33-41.5-36.06-12.59-14.1-23.3-29.77-31.85-46.63-8.49-16.75-14.79-34.53-18.72-52.89-1.92-8.94-3.27-17.99-4.05-27.1-.38-4.47-.63-8.94-.73-13.42-.11-4.44-.07-8.88.09-13.32.69-18.33,3.68-36.49,8.92-54.06,5.39-18.1,13.11-35.42,22.96-51.53,9.82-16.05,21.67-30.76,35.26-43.76,6.63-6.34,13.66-12.26,21.03-17.72,3.62-2.68,7.32-5.24,11.1-7.69,1.87-1.21,3.75-2.39,5.66-3.55,1.9-1.15,3.81-2.27,5.74-3.36,15.91-8.98,32.89-15.93,50.53-20.68,18.22-4.9,36.99-7.42,55.86-7.48,18.84-.07,37.61,2.31,55.84,7.07,17.62,4.6,34.58,11.38,50.51,20.2Z"/>
      <path class="cls-1" d="M502.13,352.53c1.03-2.72,2.01-5.45,2.95-8.21.23-.69.47-1.38.69-2.07.11-.35.23-.69.34-1.04.01-.04.03-.09.04-.13,0-.02.01-.04.02-.07,0-.01,0-.02.01-.03,0,0,0,0,0,0,0,0,0,0,0,0,0,0,0,0,0,0,0,0,0,0,0,0l.15.07c.1.04.21.09.31.13.83.35,1.67.68,2.52,1,3.44,1.31,6.95,2.4,10.53,3.26,7.36,1.77,14.92,2.58,22.49,2.39,7.64-.19,15.21-1.39,22.53-3.57,7.14-2.12,13.97-5.15,20.33-9.02,1.63-.99,3.22-2.03,4.77-3.12,1.57-1.1,3.1-2.26,4.6-3.46,3.05-2.46,5.93-5.12,8.62-7.97,5.51-5.83,10.18-12.4,13.88-19.51,3.69-7.1,6.39-14.68,8-22.52,1.56-7.57,2.1-15.31,1.61-23.01-.5-7.85-2.07-15.6-4.66-23.03-2.65-7.59-6.34-14.77-10.97-21.35-4.55-6.47-9.97-12.28-16.09-17.28-2.96-2.41-6.07-4.63-9.33-6.63-3.29-2.03-6.71-3.83-10.25-5.4-13.26-5.9-27.79-8.37-42.26-7.19-7.09.58-14.07,2.02-20.81,4.31-1.64.55-3.25,1.16-4.85,1.81-.2.08-.4.16-.59.24-.1.04-.2.08-.3.12-.05.02-.1.04-.15.06-.02.01-.05.02-.07.03h-.02s0,.01,0,.01c0,0,0,0,0,0,0,0,0,0,0,0,0,0,0,0,0,0,0,0,0,0,0,0,0-.02-.01-.04-.02-.06-.21-.66-.43-1.31-.65-1.97-.44-1.31-.89-2.62-1.35-3.92-.46-1.3-.93-2.6-1.41-3.9-.12-.32-.24-.65-.36-.97-.06-.16-.12-.32-.18-.49-.01-.04-.03-.08-.05-.12,0-.02-.02-.04-.02-.06,0-.01,0-.02-.01-.03,0,0,0,0,0-.01,0,0,0,0,0,0,0,0,0,0,0,0,0,0,0,0,0,0h0s0,0,0,0c.08-.03.16-.07.25-.1.66-.27,1.32-.54,1.99-.79,2.7-1.04,5.43-1.96,8.21-2.77,15.33-4.43,31.5-5.08,47.14-1.91,7.76,1.58,15.3,4.08,22.46,7.45,3.48,1.64,6.87,3.48,10.13,5.52,1.61,1,3.18,2.05,4.73,3.14,1.56,1.1,3.09,2.25,4.58,3.44,12.47,9.92,22.35,22.71,28.81,37.28,3.22,7.27,5.56,14.89,6.96,22.72,1.35,7.56,1.82,15.26,1.39,22.93-.44,7.81-1.8,15.53-4.06,23.01-2.31,7.66-5.54,15.02-9.63,21.9-4.06,6.85-8.94,13.18-14.52,18.86-2.73,2.78-5.62,5.39-8.65,7.82-2.97,2.38-6.07,4.59-9.29,6.61-6.59,4.14-13.64,7.48-21.01,9.97-7.58,2.55-15.43,4.18-23.4,4.84-7.95.66-15.96.36-23.84-.91-7.64-1.22-15.11-3.34-22.26-6.31Z"/>
      <path class="cls-1" d="M491.03,144.69c-1.23-2.42-2.49-4.83-3.8-7.21-.65-1.19-1.31-2.38-1.98-3.56,0,0-.01-.02-.02-.03,0,0,0,0,0,0,0,0,0,0,0,0s0,0,0,0c0,0,0,0,0,0,0,0,0,0,.01,0,.02,0,.04-.02.06-.02.04-.02.08-.03.11-.05.08-.03.15-.07.23-.1.15-.07.31-.13.46-.2.31-.13.62-.26.93-.39.62-.26,1.24-.51,1.87-.76,5.07-2.01,10.25-3.72,15.52-5.12,10.85-2.88,22.01-4.44,33.24-4.63,22.63-.39,45.01,4.77,65.18,15.03,2.43,1.24,4.82,2.54,7.18,3.92,1.17.68,2.32,1.38,3.46,2.1,1.14.71,2.26,1.44,3.38,2.18,4.52,3.01,8.86,6.28,12.99,9.8,8.53,7.26,16.15,15.52,22.69,24.62,13.24,18.41,21.77,39.79,24.82,62.27.73,5.39,1.15,10.83,1.24,16.27.02,1.34.03,2.68.01,4.02-.02,1.35-.05,2.69-.11,4.04-.11,2.72-.3,5.43-.57,8.13-1.11,11.11-3.56,22.05-7.3,32.57-7.6,21.4-20.34,40.61-37.1,55.93-4.04,3.69-8.29,7.14-12.74,10.33-1.09.78-2.2,1.55-3.31,2.3-1.11.75-2.23,1.48-3.37,2.2-2.29,1.45-4.61,2.82-6.98,4.14-9.74,5.39-20.09,9.59-30.83,12.5-21.94,5.95-45.01,6.41-67.17,1.35-7.04-1.61-13.94-3.77-20.65-6.45-.82-.33-1.64-.67-2.46-1.01-.2-.09-.41-.17-.61-.26-.05-.02-.1-.04-.15-.07-.01,0-.03-.01-.04-.02,0,0,0,0,0,0,0,0,0,0,0,0,0,0,0,0,0,0s0,0,0,0t0,0v-.02s.04-.05.05-.07c.06-.1.11-.2.17-.29.22-.39.44-.78.66-1.17.87-1.56,1.73-3.14,2.57-4.72.42-.79.84-1.58,1.25-2.38.21-.4.41-.8.62-1.19.1-.2.2-.4.31-.6.05-.1.1-.2.15-.3,0-.01.01-.03.02-.04,0,0,0,0,0,0,0,0,0,0,0,0,0,0,0,0,0,0,0,0,0,0,.01,0l.05.02s.07.03.11.04c1.13.48,2.27.93,3.42,1.38,9.44,3.63,19.27,6.12,29.3,7.41,20.65,2.65,41.64.16,61.1-7.25,5.17-1.97,10.21-4.28,15.07-6.91,2.39-1.29,4.73-2.66,7.03-4.1,2.28-1.43,4.51-2.92,6.69-4.5,9-6.47,17.11-14.1,24.12-22.69,14.37-17.61,23.73-38.77,27.09-61.26.81-5.4,1.26-10.85,1.36-16.31.03-1.34.03-2.68.01-4.03-.02-1.35-.06-2.7-.12-4.05-.12-2.73-.34-5.44-.63-8.16-1.23-11.15-3.94-22.08-8.06-32.52-4.18-10.6-9.78-20.58-16.64-29.68-6.72-8.91-14.59-16.89-23.4-23.74-2.14-1.66-4.33-3.25-6.57-4.77-2.23-1.52-4.51-2.96-6.84-4.32-4.75-2.79-9.67-5.27-14.74-7.43-10.42-4.42-21.39-7.42-32.61-8.93-11.28-1.51-22.71-1.49-33.98.06-10.93,1.5-21.62,4.43-31.79,8.71Z"/>
      <path class="cls-1" d="M462.67,421.81c1.48-1.86,2.94-3.74,4.37-5.63.71-.95,1.42-1.9,2.12-2.86.35-.48.7-.96,1.05-1.44,0,0,0,0,0,0,0,0,0,0,0,0,0,0,0,0,0,0,0,0,0,0,0,0h.02s.02.02.04.03c.02.01.05.02.07.03.05.02.1.05.15.07.1.04.2.09.29.14.2.09.39.18.59.27,3.19,1.45,6.41,2.79,9.68,4.03,6.67,2.53,13.5,4.63,20.44,6.29,14.25,3.4,28.9,4.9,43.54,4.46,14.72-.44,29.31-2.85,43.4-7.14,13.67-4.17,26.75-10.08,38.9-17.59,3.02-1.87,5.97-3.82,8.86-5.88,2.93-2.08,5.79-4.26,8.58-6.53,5.68-4.62,11.06-9.61,16.08-14.94,10.28-10.9,19.03-23.14,26.02-36.39,6.98-13.22,12.14-27.32,15.35-41.93,1.56-7.12,2.65-14.33,3.27-21.59.3-3.56.49-7.13.56-10.7.04-1.77.04-3.53.02-5.3-.02-1.78-.07-3.55-.15-5.33-.64-14.62-3.22-29.08-7.65-43.02-4.55-14.31-11.02-27.93-19.23-40.5-8.13-12.44-17.88-23.73-29.01-33.57-5.39-4.77-11.09-9.18-17.06-13.21-2.94-1.98-5.93-3.87-8.98-5.66-3.09-1.81-6.24-3.52-9.45-5.13-12.67-6.36-26.1-11.08-39.97-14.03-14.13-3.01-28.58-4.16-43-3.42-14.21.72-28.26,3.27-41.81,7.57-6.56,2.08-12.98,4.57-19.23,7.45-.1.04-.19.09-.29.13-.01,0-.02.01-.04.02,0,0,0,0,0,0h0s0,0,0,0c0,0,0,0,0,0,0,0-.01-.01-.02-.02-.02-.03-.04-.06-.06-.09-.04-.06-.08-.12-.13-.18-.17-.24-.34-.47-.51-.71-.34-.47-.69-.94-1.03-1.41-.69-.93-1.39-1.87-2.09-2.79-.7-.93-1.41-1.85-2.13-2.76-.36-.46-.72-.91-1.08-1.37-.09-.11-.18-.23-.27-.34-.04-.06-.09-.11-.14-.17-.02-.03-.05-.06-.07-.09,0,0-.01-.01-.02-.02,0,0,0,0,0,0t0,0s0,0,0,0c0,0,0,0,0,0h.01s.03-.02.05-.03c.25-.12.51-.24.76-.37,4.12-1.96,8.29-3.75,12.55-5.38,13.7-5.27,28-8.82,42.58-10.59,14.9-1.8,29.96-1.72,44.84.26,14.74,1.95,29.17,5.74,42.97,11.28,13.31,5.34,25.92,12.26,37.57,20.63,11.88,8.53,22.67,18.49,32.12,29.65,9.68,11.44,17.89,24.06,24.41,37.55,6.48,13.4,11.26,27.56,14.22,42.15,1.44,7.11,2.45,14.3,3.02,21.54.28,3.55.45,7.1.52,10.66.03,1.76.04,3.52.02,5.29-.02,1.77-.07,3.54-.14,5.31-.6,14.56-2.98,28.99-7.09,42.97-4.22,14.37-10.24,28.14-17.91,41.01-7.64,12.81-16.85,24.61-27.42,35.13-5.16,5.14-10.64,9.95-16.39,14.42-2.83,2.19-5.71,4.3-8.67,6.32-1.46,1-2.94,1.98-4.43,2.93-1.48.95-2.98,1.88-4.49,2.79-12.45,7.47-25.76,13.39-39.65,17.63-14.3,4.37-29.1,6.92-44.04,7.6-14.92.67-29.87-.53-44.49-3.58-14.16-2.96-27.9-7.62-40.93-13.9Z"/>
      <path class="cls-1" d="M443.74,79.33c-1.6-1.61-3.22-3.19-4.87-4.76-.82-.78-1.65-1.56-2.48-2.33-.42-.39-.83-.77-1.25-1.15-.21-.19-.42-.38-.63-.57-.01-.01-.03-.02-.04-.04,0,0,0,0-.01,0,0,0,0,0,0,0,0,0,0,0,0,0,0,0,0,0,0,0,0,0,.02,0,.02-.01.03-.02.06-.03.09-.05l.18-.1.36-.2c3.91-2.15,7.87-4.17,11.91-6.07,8.23-3.88,16.69-7.25,25.34-10.07,17.8-5.81,36.28-9.31,54.97-10.39,18.87-1.1,37.8.26,56.32,4.04,18.08,3.69,35.61,9.66,52.18,17.78,4.02,1.97,7.98,4.06,11.87,6.27,3.87,2.2,7.66,4.51,11.38,6.94,7.6,4.96,14.88,10.38,21.81,16.24,14.28,12.09,26.94,25.97,37.67,41.29,10.86,15.5,19.66,32.36,26.16,50.14,6.37,17.4,10.49,35.53,12.27,53.97.43,4.48.73,8.96.88,13.45.08,2.22.12,4.44.13,6.67,0,2.22-.02,4.44-.08,6.65-.24,9.03-1.04,18.04-2.4,26.98-2.81,18.46-7.98,36.47-15.38,53.61-7.51,17.39-17.25,33.72-28.97,48.59-11.51,14.59-24.83,27.64-39.64,38.85-3.6,2.73-7.28,5.33-11.05,7.83-3.71,2.46-7.49,4.8-11.34,7.03-7.79,4.51-15.85,8.52-24.14,12.03-17.15,7.26-35.16,12.29-53.59,14.97-18.74,2.73-37.76,3-56.57.81-18.5-2.15-36.65-6.67-54.01-13.43-5.13-2-10.16-4.18-15.12-6.56-2.45-1.17-4.87-2.39-7.27-3.66-1.19-.63-2.38-1.27-3.56-1.92-.07-.04-.15-.08-.22-.12l-.11-.06s-.04-.02-.06-.03c0,0-.02-.01-.03-.02,0,0,0,0-.01,0,0,0,0,0,0,0,0,0,0,0,0,0,0,0,0,0,0,0,.13-.12.25-.23.38-.35.25-.23.51-.47.76-.7.51-.47,1.01-.94,1.52-1.41,2.02-1.88,4-3.8,5.96-5.75.12-.12.24-.24.37-.37.06-.06.12-.12.18-.18l.09-.09s0,0,.01-.01c0,0,0,0,0,0,0,0,0,0,0,0,0,0,0,0,0,0,0,0,0,0,0,0,0,0,.01,0,.02.01.01,0,.03.02.04.02.24.12.47.25.71.37.47.25.94.49,1.42.74.95.49,1.9.97,2.86,1.44,3.87,1.91,7.79,3.7,11.78,5.37,16.42,6.87,33.66,11.59,51.29,14.02,35.96,4.97,72.58.33,106.17-13.43,8.37-3.43,16.51-7.41,24.36-11.91,1.93-1.11,3.83-2.24,5.72-3.41,1.9-1.17,3.78-2.37,5.64-3.61,3.76-2.5,7.44-5.11,11.03-7.85,14.8-11.28,27.99-24.52,39.23-39.35,11.45-15.1,20.75-31.72,27.65-49.37,6.77-17.31,11.16-35.46,13.05-53.96.46-4.49.77-8.98.93-13.49.08-2.23.13-4.45.13-6.68,0-2.22-.02-4.45-.08-6.67-.26-9.06-1.12-18.1-2.57-27.05-3-18.5-8.51-36.49-16.38-53.5-7.96-17.19-18.25-33.2-30.59-47.58-12.02-14-25.86-26.32-41.16-36.63-1.86-1.25-3.73-2.47-5.63-3.66-1.88-1.18-3.78-2.33-5.7-3.45-3.88-2.26-7.82-4.39-11.84-6.4-8.2-4.09-16.67-7.63-25.35-10.59-17.83-6.09-36.42-9.69-55.23-10.72-18.89-1.03-37.82.55-56.28,4.69-17.85,4-35.07,10.37-51.23,18.93Z"/>
      <path class="cls-1" d="M295.02,340.99c1.14,3.51,2.36,6.99,3.65,10.45.08.22.16.43.24.65.04.11.08.22.12.32.01.03.02.05.03.08v.02s.01,0,.01.01c0,0,0,0,0,0s0,0,0,0c0,0,0,0,0,0-.01,0-.03.01-.04.02-.06.02-.11.05-.16.07-.44.18-.88.36-1.32.53-.89.35-1.78.69-2.68,1.02-1.82.66-3.65,1.26-5.5,1.81-7.6,2.26-15.44,3.6-23.36,3.99-16.08.79-32.11-2.36-46.7-9.18-3.49-1.63-6.89-3.47-10.17-5.49-1.61-1-3.19-2.04-4.74-3.13-1.57-1.1-3.1-2.24-4.6-3.42-6.16-4.87-11.71-10.46-16.55-16.65-9.87-12.63-16.52-27.46-19.39-43.23-.69-3.81-1.16-7.67-1.4-11.53-.12-1.9-.18-3.8-.19-5.7,0-.95,0-1.89.03-2.84.02-.95.06-1.9.11-2.86.42-7.81,1.76-15.54,3.99-23.04,4.59-15.37,12.85-29.4,24.07-40.86,2.72-2.79,5.61-5.41,8.64-7.85,1.49-1.2,3.02-2.36,4.58-3.47,1.54-1.1,3.11-2.16,4.72-3.17,6.59-4.15,13.64-7.51,21.01-10.01,15.2-5.15,31.43-6.53,47.28-4.01,5.47.87,10.86,2.2,16.11,3.97,1.29.43,2.56.89,3.83,1.38.63.24,1.25.49,1.88.74.16.06.31.13.47.19.02,0,.04.02.06.02,0,0,.02,0,.03.01,0,0,0,0,0,0,0,0,0,0,0,0,0,0,0,0,0,0,0,0,0,0,0,0,0,0,0,0,0,.01l-.04.11c-.03.08-.06.15-.09.23-.11.31-.23.61-.34.92-.91,2.44-1.79,4.9-2.62,7.37-.21.62-.42,1.24-.62,1.85-.1.31-.2.62-.3.93,0,.02-.01.04-.02.06,0,0,0,.02,0,.03,0,0,0,.01,0,.01,0,0,0,0,0,0,0,0,0,0,0,0,0,0,0,0,0,0h0s-.05-.02-.07-.03c-.05-.02-.09-.04-.14-.06-.09-.04-.19-.08-.28-.12-.75-.31-1.5-.61-2.26-.9-1.53-.59-3.07-1.13-4.63-1.63-3.17-1.02-6.4-1.85-9.66-2.49-13.45-2.66-27.34-2.09-40.53,1.67-7.52,2.14-14.71,5.29-21.39,9.36-1.62.99-3.2,2.02-4.75,3.11-1.57,1.1-3.09,2.25-4.58,3.45-3.04,2.45-5.9,5.1-8.58,7.94-11.01,11.67-18.58,26.16-21.84,41.87-3.18,15.31-2.17,31.19,2.94,45.97,5.23,15.13,14.55,28.52,26.93,38.68,1.49,1.22,3.01,2.39,4.58,3.51,1.55,1.11,3.13,2.16,4.74,3.16,3.29,2.04,6.71,3.85,10.24,5.44,7.28,3.26,14.97,5.5,22.86,6.66,7.95,1.17,16.02,1.22,23.98.17,7.72-1.02,15.27-3.08,22.45-6.13Z"/>
      <g>
        <path class="cls-2" d="M400.61,44.48c9.37-6.03,19.12-11.44,29.2-16.21,10.35-4.9,21.01-9.1,31.92-12.58,22.35-7.13,45.57-11.17,69.01-12.02,23.44-.85,46.89,1.51,69.7,7.01,11.13,2.68,22.07,6.11,32.74,10.24,10.39,4.03,20.51,8.73,30.29,14.06,9.78,5.34,19.21,11.3,28.22,17.86,9.26,6.74,18.05,14.08,26.33,21.99,16.96,16.2,31.64,34.65,43.61,54.82,11.97,20.17,21.14,41.89,27.23,64.54,2.98,11.05,5.21,22.3,6.69,33.65,1.44,11.05,2.16,22.18,2.16,33.32s-.72,22.27-2.16,33.32c-1.48,11.35-3.72,22.59-6.69,33.65-6.1,22.65-15.26,44.37-27.23,64.54-11.97,20.17-26.65,38.62-43.61,54.82-8.28,7.91-17.08,15.25-26.33,21.99-9.01,6.56-18.43,12.52-28.22,17.86-9.78,5.34-19.9,10.04-30.29,14.06-10.67,4.14-21.61,7.56-32.74,10.24-22.81,5.5-46.26,7.86-69.7,7.01-23.45-.85-46.66-4.89-69.01-12.02-10.91-3.48-21.57-7.68-31.92-12.58-5.08-2.4-10.06-4.97-14.97-7.69-2.43-1.35-4.83-2.74-7.21-4.16-1.18-.71-2.36-1.43-3.53-2.15-.58-.36-1.17-.73-1.75-1.1-.29-.18-.58-.37-.87-.55-.14-.09-.29-.18-.43-.28l-.22-.14-.11-.07s-.04-.02-.05-.03c0,0-.02-.01-.03-.02,0,0,0,0-.01,0,0,0,0,0,0,0,0,0,0,0,0,0h0s0,0,0,0c-9.37,6.03-19.12,11.44-29.2,16.21-10.35,4.9-21.01,9.1-31.92,12.58-22.35,7.13-45.57,11.17-69.01,12.02-23.45.85-46.89-1.51-69.7-7.01-11.13-2.68-22.07-6.11-32.74-10.24-10.39-4.03-20.51-8.73-30.29-14.06-9.78-5.34-19.21-11.3-28.22-17.86-9.26-6.74-18.05-14.08-26.33-21.99-16.96-16.2-31.64-34.65-43.61-54.82-11.97-20.18-21.14-41.89-27.23-64.54-2.98-11.06-5.21-22.3-6.69-33.65-1.44-11.05-2.16-22.18-2.16-33.32s.72-22.27,2.16-33.32c1.48-11.35,3.72-22.59,6.69-33.65,6.1-22.65,15.26-44.37,27.23-64.54,11.97-20.17,26.65-38.62,43.61-54.82,8.28-7.91,17.07-15.25,26.33-21.99,9.01-6.56,18.43-12.52,28.22-17.86,9.78-5.34,19.9-10.04,30.29-14.06,10.67-4.14,21.61-7.56,32.74-10.24,22.81-5.5,46.26-7.86,69.7-7.01,23.45.85,46.66,4.89,69.01,12.02,10.91,3.48,21.57,7.68,31.92,12.58,10.07,4.77,19.82,10.18,29.2,16.21ZM400.61,463.21c16.05-11.08,30.73-24.03,43.72-38.58,13.38-14.99,24.87-31.57,34.2-49.36,9.34-17.79,16.46-36.66,21.2-56.19,4.6-18.96,6.92-38.39,6.92-57.89s-2.32-38.94-6.92-57.89c-4.74-19.53-11.86-38.4-21.2-56.19-9.34-17.79-20.83-34.37-34.21-49.36-6.56-7.35-13.55-14.3-20.95-20.81-3.64-3.2-7.37-6.3-11.19-9.28-1.89-1.48-3.81-2.93-5.74-4.35-.96-.71-1.93-1.41-2.9-2.1-.49-.35-.97-.69-1.46-1.03-.24-.17-.49-.34-.73-.51-.12-.08-.24-.17-.37-.25l-.18-.13-.09-.06s-.03-.02-.05-.03c0,0-.02-.01-.02-.02,0,0,0,0-.01,0,0,0,0,0,0,0,0,0,0,0,0,0,0,0,0,0,0,0,0,0,0,0,0,0-16.05,11.08-30.73,24.03-43.71,38.58-13.38,14.99-24.87,31.57-34.2,49.36-9.34,17.79-16.46,36.66-21.2,56.19-4.6,18.96-6.92,38.39-6.92,57.89s2.32,38.94,6.92,57.89c4.74,19.53,11.86,38.4,21.2,56.19,9.34,17.79,20.83,34.37,34.2,49.36,12.99,14.55,27.66,27.5,43.72,38.58ZM411.63,470.38c13.18,8.09,27.09,14.91,41.55,20.39,14.95,5.66,30.41,9.84,46.18,12.49,31.98,5.37,64.7,4.36,96.28-2.99,15.53-3.61,30.66-8.73,45.2-15.27,3.55-1.6,7.05-3.28,10.51-5.04,3.43-1.74,6.81-3.56,10.15-5.47,6.74-3.84,13.3-8,19.65-12.46,13.08-9.19,25.23-19.63,36.28-31.18,11.31-11.82,21.4-24.74,30.14-38.57,17.4-27.55,29.14-58.28,34.54-90.41,1.3-7.75,2.23-15.56,2.79-23.4.54-7.68.72-15.38.54-23.08-.37-15.72-2.25-31.36-5.61-46.71-6.89-31.47-19.9-61.27-38.31-87.71-9.16-13.17-19.59-25.4-31.14-36.53-11.25-10.84-23.5-20.58-36.6-29.09-3.22-2.09-6.48-4.1-9.79-6.04-3.29-1.92-6.61-3.77-9.98-5.53-6.85-3.59-13.86-6.85-21.01-9.78-14.72-6.02-29.98-10.6-45.58-13.67-31.97-6.29-64.87-6.15-96.78.41-15.36,3.16-30.39,7.78-44.87,13.8-7.06,2.94-13.98,6.2-20.74,9.79-3.33,1.76-6.61,3.6-9.85,5.52-.8.48-1.61.95-2.4,1.44-.2.12-.4.24-.6.36-.1.06-.2.12-.3.18-.05.03-.1.06-.15.09-.03.02-.05.03-.07.05,0,0-.01,0-.02.01,0,0,0,0,0,0,0,0,0,0,0,0,0,0,0,0,0,0,0,0,0,0,0,0,0,0,0,0,0,0,.01,0,.02.02.04.03.4.29.8.58,1.2.87,1.6,1.17,3.19,2.35,4.76,3.55,12.87,9.84,24.78,20.86,35.58,32.94,11.07,12.37,20.92,25.78,29.4,40.05,16.59,27.89,27.77,58.65,32.94,90.69,1.26,7.78,2.15,15.62,2.69,23.49.53,7.73.71,15.48.54,23.22-.35,15.76-2.14,31.46-5.35,46.89-6.58,31.6-19.04,61.67-36.72,88.67-8.77,13.39-18.77,25.93-29.86,37.46-10.8,11.22-22.59,21.45-35.24,30.54ZM389.59,51.98c-13.18-8.09-27.09-14.91-41.55-20.39-14.95-5.66-30.41-9.84-46.18-12.48-31.98-5.37-64.7-4.36-96.28,2.99-15.53,3.61-30.66,8.73-45.2,15.27-3.55,1.6-7.05,3.28-10.52,5.04-3.43,1.74-6.81,3.57-10.15,5.47-6.74,3.84-13.3,8-19.65,12.46-13.08,9.19-25.23,19.63-36.28,31.18-11.31,11.82-21.4,24.74-30.14,38.57-17.4,27.55-29.14,58.28-34.54,90.41-1.3,7.75-2.23,15.56-2.79,23.4-.54,7.68-.72,15.38-.54,23.07.37,15.72,2.25,31.36,5.61,46.71,6.89,31.47,19.9,61.27,38.31,87.71,9.16,13.17,19.59,25.4,31.14,36.53,11.25,10.84,23.5,20.58,36.6,29.09,3.22,2.09,6.48,4.1,9.79,6.04,3.29,1.92,6.61,3.77,9.98,5.53,6.85,3.59,13.86,6.85,21.01,9.78,14.72,6.02,29.98,10.6,45.58,13.67,31.97,6.29,64.87,6.15,96.78-.41,15.36-3.16,30.39-7.78,44.87-13.8,7.06-2.94,13.98-6.2,20.74-9.79,3.33-1.76,6.61-3.6,9.85-5.52.8-.47,1.6-.95,2.4-1.44.2-.12.4-.24.6-.36.1-.06.2-.12.3-.18.05-.03.1-.06.15-.09.02-.01.05-.03.07-.05,0,0,.01,0,.02-.01,0,0,0,0,0,0t0,0s0,0,0,0c0,0,0,0,0,0,0,0,0,0,0,0-.01,0-.03-.02-.04-.03-.4-.29-.8-.58-1.2-.87-1.6-1.17-3.19-2.35-4.76-3.55-12.87-9.84-24.78-20.86-35.58-32.94-11.07-12.37-20.92-25.79-29.4-40.05-16.59-27.89-27.77-58.65-32.94-90.69-1.26-7.78-2.16-15.62-2.69-23.48-.53-7.73-.71-15.48-.54-23.23.35-15.76,2.14-31.46,5.35-46.89,6.58-31.6,19.04-61.67,36.72-88.67,8.77-13.39,18.77-25.93,29.86-37.46,10.8-11.23,22.59-21.45,35.24-30.54Z"/>
        <path class="cls-2" d="M540.03,522.36c-3.14,0-6.28-.06-9.42-.17-23.77-.86-47.3-4.96-69.95-12.19-11.02-3.52-21.91-7.81-32.35-12.75-5.12-2.42-10.22-5.04-15.18-7.8-2.45-1.36-4.9-2.78-7.31-4.22-1.2-.72-2.39-1.45-3.58-2.18-.55-.34-1.09-.68-1.64-1.02-8.9,5.61-18.2,10.73-27.7,15.22-10.45,4.94-21.33,9.23-32.35,12.75-22.65,7.23-46.18,11.33-69.95,12.18-23.77.86-47.54-1.53-70.65-7.11-11.24-2.71-22.41-6.2-33.19-10.38-10.49-4.07-20.82-8.86-30.7-14.25-9.88-5.39-19.5-11.48-28.6-18.1-9.35-6.81-18.33-14.31-26.69-22.29-17.19-16.42-32.07-35.12-44.2-55.57-12.13-20.45-21.42-42.46-27.6-65.42-3-11.16-5.29-22.64-6.78-34.11-1.46-11.17-2.19-22.53-2.19-33.78s.74-22.61,2.19-33.78c1.5-11.47,3.78-22.94,6.78-34.11,6.18-22.96,15.47-44.97,27.6-65.42,12.14-20.45,27.01-39.15,44.2-55.57,8.36-7.98,17.34-15.48,26.69-22.29,9.1-6.63,18.73-12.72,28.6-18.1,9.88-5.39,20.21-10.19,30.7-14.25,10.78-4.18,21.95-7.67,33.19-10.38C223.07,1.7,246.84-.69,270.61.17c23.76.86,47.3,4.96,69.95,12.18,11.01,3.51,21.9,7.8,32.35,12.75,9.5,4.5,18.81,9.61,27.7,15.22,8.9-5.61,18.2-10.73,27.7-15.22,10.45-4.95,21.34-9.24,32.35-12.75,22.65-7.23,46.19-11.33,69.95-12.18,23.76-.86,47.53,1.53,70.65,7.11,11.24,2.71,22.41,6.2,33.19,10.38,10.5,4.07,20.82,8.87,30.7,14.25,9.87,5.39,19.49,11.48,28.6,18.1,9.35,6.8,18.33,14.3,26.69,22.29,17.19,16.42,32.06,35.12,44.2,55.57,12.14,20.45,21.42,42.46,27.6,65.42,3.01,11.17,5.29,22.65,6.78,34.11,1.46,11.16,2.19,22.52,2.19,33.78s-.74,22.62-2.19,33.78c-1.49,11.46-3.78,22.93-6.78,34.1-6.18,22.96-15.47,44.97-27.6,65.42-12.14,20.45-27.01,39.15-44.2,55.57-8.36,7.99-17.34,15.49-26.69,22.29-9.1,6.62-18.72,12.71-28.6,18.1-9.88,5.39-20.21,10.19-30.7,14.25-10.78,4.18-21.94,7.67-33.19,10.38-20.06,4.84-40.61,7.28-61.23,7.28ZM402.83,475.15l1.38.88c.58.37,1.16.73,1.73,1.09,1.15.71,2.31,1.42,3.48,2.12,2.34,1.4,4.73,2.78,7.11,4.1,4.82,2.68,9.79,5.24,14.77,7.59,10.17,4.81,20.76,8.99,31.49,12.41,22.04,7.03,44.95,11.02,68.08,11.86,23.13.83,46.26-1.49,68.75-6.92,10.94-2.64,21.81-6.04,32.3-10.11,10.21-3.96,20.26-8.63,29.88-13.87,9.61-5.25,18.98-11.17,27.83-17.62,9.09-6.62,17.83-13.92,25.97-21.69,16.73-15.98,31.2-34.18,43.02-54.08,11.81-19.9,20.85-41.32,26.86-63.67,2.93-10.87,5.15-22.04,6.6-33.19,1.42-10.86,2.13-21.92,2.13-32.87s-.72-22.01-2.13-32.87c-1.45-11.15-3.67-22.32-6.6-33.19-6.01-22.35-15.05-43.77-26.86-63.67-11.81-19.9-26.29-38.1-43.02-54.08-8.14-7.77-16.88-15.07-25.97-21.69-8.86-6.45-18.22-12.38-27.83-17.62-9.61-5.25-19.66-9.91-29.88-13.87-10.49-4.07-21.36-7.47-32.3-10.1-22.5-5.42-45.63-7.75-68.75-6.92-23.12.83-46.03,4.82-68.08,11.86-10.72,3.42-21.31,7.59-31.49,12.41-9.9,4.68-19.59,10.06-28.8,15.99l-1.89,1.22-1.89-1.22c-9.21-5.92-18.9-11.3-28.8-15.99-10.17-4.81-20.77-8.99-31.48-12.41-22.05-7.03-44.95-11.02-68.08-11.86-23.13-.84-46.26,1.49-68.75,6.92-10.94,2.64-21.8,6.04-32.3,10.1-10.21,3.96-20.27,8.63-29.88,13.87-9.61,5.24-18.97,11.17-27.83,17.62-9.1,6.63-17.84,13.92-25.97,21.69-16.73,15.98-31.21,34.18-43.02,54.08-11.81,19.9-20.85,41.32-26.86,63.67-2.92,10.86-5.15,22.03-6.6,33.19-1.42,10.87-2.13,21.93-2.13,32.87s.72,22.01,2.13,32.87c1.46,11.16,3.68,22.33,6.6,33.19,6.01,22.35,15.05,43.77,26.86,63.67,11.81,19.9,26.29,38.09,43.02,54.08,8.13,7.77,16.87,15.07,25.97,21.69,8.85,6.45,18.22,12.37,27.83,17.62,9.62,5.25,19.67,9.91,29.88,13.87,10.49,4.07,21.36,7.47,32.3,10.11,22.49,5.42,45.63,7.75,68.75,6.92,23.13-.84,46.04-4.83,68.08-11.86,10.73-3.42,21.32-7.6,31.48-12.41,9.9-4.68,19.59-10.06,28.8-15.99l1.93-1.24,2.18,1.45ZM401.3,477.21l-.48.81.58-.91-.1.1ZM261.19,510.17c-16.05,0-32.11-1.57-48.06-4.71-15.79-3.11-31.34-7.77-46.23-13.86-7.22-2.95-14.39-6.29-21.31-9.92-3.39-1.77-6.79-3.66-10.13-5.61-3.34-1.96-6.68-4.02-9.93-6.13-13.25-8.61-25.74-18.54-37.12-29.5-11.69-11.26-22.31-23.73-31.59-37.05-18.76-26.96-31.83-56.89-38.85-88.96-3.4-15.54-5.32-31.48-5.69-47.38-.18-7.76,0-15.64.55-23.4.56-7.92,1.51-15.9,2.83-23.73,5.51-32.76,17.29-63.61,35.04-91.7,8.84-13.99,19.12-27.16,30.57-39.12,11.18-11.69,23.56-22.33,36.79-31.63,6.42-4.51,13.12-8.76,19.93-12.63,3.38-1.93,6.85-3.79,10.29-5.55,3.49-1.78,7.08-3.5,10.66-5.11,14.71-6.62,30.13-11.84,45.84-15.49,32.2-7.49,65.05-8.51,97.66-3.03,15.95,2.68,31.71,6.94,46.83,12.66,14.63,5.53,28.81,12.49,42.15,20.68l4.48,2.75-4.27,3.07c-12.44,8.94-24.13,19.08-34.76,30.13-10.92,11.35-20.83,23.78-29.46,36.95-17.52,26.74-29.71,56.17-36.22,87.47-3.16,15.19-4.94,30.75-5.28,46.25-.17,7.61.01,15.32.53,22.91.53,7.73,1.42,15.52,2.66,23.17,5.12,31.73,16.05,61.83,32.49,89.46,8.35,14.04,18.11,27.33,29,39.51,10.62,11.88,22.43,22.81,35.1,32.49,1.55,1.18,3.13,2.36,4.7,3.51l1.01.73,6.01,3-6.55,3.32-.61.37c-.8.49-1.62.97-2.43,1.46-3.27,1.93-6.63,3.82-9.99,5.59-6.81,3.61-13.89,6.95-21.03,9.93-14.66,6.1-29.97,10.81-45.51,14-16.61,3.41-33.36,5.12-50.1,5.12ZM261.11,19.19c-18.35,0-36.65,2.11-54.74,6.31-15.27,3.55-30.26,8.62-44.55,15.05-3.48,1.57-6.97,3.24-10.37,4.97-3.35,1.7-6.71,3.52-10,5.39-6.62,3.77-13.13,7.9-19.37,12.28-12.86,9.04-24.89,19.38-35.76,30.74-11.12,11.63-21.12,24.42-29.71,38.02-17.24,27.29-28.7,57.28-34.05,89.12-1.28,7.61-2.2,15.37-2.75,23.06-.53,7.55-.71,15.2-.53,22.75.36,15.45,2.22,30.95,5.53,46.05,6.83,31.18,19.53,60.27,37.76,86.46,9.01,12.95,19.34,25.06,30.7,36.01,11.06,10.66,23.2,20.31,36.08,28.68,3.16,2.05,6.41,4.06,9.65,5.96,3.24,1.89,6.55,3.73,9.84,5.45,6.72,3.52,13.69,6.77,20.71,9.64,14.47,5.92,29.58,10.45,44.93,13.47,31.68,6.23,63.78,6.1,95.4-.4,15.11-3.1,29.99-7.68,44.23-13.61,6.94-2.89,13.82-6.13,20.44-9.65,2.92-1.55,5.85-3.18,8.72-4.86-.61-.46-1.22-.92-1.83-1.38-13.02-9.95-25.15-21.18-36.07-33.38-11.2-12.51-21.22-26.17-29.8-40.59-16.89-28.39-28.12-59.31-33.38-91.92-1.27-7.86-2.19-15.86-2.73-23.8-.53-7.8-.72-15.72-.55-23.54.35-15.93,2.17-31.92,5.42-47.53,6.7-32.16,19.22-62.4,37.22-89.87,8.87-13.53,19.05-26.31,30.27-37.97,9.7-10.08,20.26-19.42,31.45-27.82-11.64-6.8-23.89-12.65-36.48-17.41-14.7-5.56-30.02-9.7-45.52-12.31-13.37-2.25-26.78-3.37-40.17-3.37ZM540.11,510.17c-13.78,0-27.58-1.15-41.34-3.47-15.95-2.68-31.71-6.94-46.83-12.66-14.63-5.54-28.81-12.49-42.15-20.68l-4.48-2.75,4.27-3.07c12.44-8.95,24.14-19.08,34.76-30.12,10.92-11.35,20.83-23.78,29.46-36.95,17.52-26.74,29.7-56.17,36.22-87.47,3.16-15.19,4.94-30.75,5.28-46.25.17-7.61-.01-15.32-.53-22.91-.53-7.72-1.42-15.51-2.66-23.17-5.12-31.73-16.05-61.83-32.49-89.46-8.36-14.04-18.11-27.34-29-39.51-10.63-11.88-22.44-22.81-35.1-32.49-1.54-1.18-3.12-2.36-4.7-3.51-.34-.25-.67-.49-1-.73l-.26-.13-3.62-3.62,4.07-2.38,1.8,2.74h0s-1.72-2.8-1.72-2.8l.85-.52c.81-.49,1.62-.98,2.44-1.46,3.27-1.93,6.62-3.81,9.99-5.59,6.83-3.62,13.91-6.96,21.03-9.93,14.65-6.09,29.96-10.81,45.51-14,32.54-6.69,65.57-6.83,98.16-.41,15.79,3.1,31.34,7.77,46.23,13.86,7.22,2.95,14.39,6.29,21.31,9.92,3.4,1.78,6.81,3.67,10.13,5.61,3.33,1.95,6.67,4.01,9.93,6.13,13.25,8.61,25.74,18.54,37.12,29.51,11.69,11.26,22.31,23.73,31.58,37.05,18.76,26.96,31.83,56.89,38.85,88.96,3.4,15.54,5.32,31.48,5.69,47.38.18,7.76,0,15.64-.55,23.4-.56,7.92-1.51,15.9-2.83,23.73-5.51,32.76-17.3,63.61-35.04,91.7-8.84,14-19.13,27.16-30.57,39.12-11.18,11.69-23.56,22.33-36.79,31.63-6.42,4.51-13.13,8.76-19.93,12.63-3.35,1.91-6.82,3.78-10.29,5.54-3.49,1.78-7.08,3.5-10.67,5.11-14.71,6.62-30.13,11.84-45.84,15.49-18.61,4.33-37.45,6.5-56.32,6.5ZM417.94,470.09c11.64,6.8,23.88,12.64,36.48,17.41,14.7,5.56,30.02,9.7,45.52,12.31,31.69,5.32,63.62,4.33,94.91-2.95,15.27-3.55,30.26-8.62,44.55-15.05,3.48-1.57,6.97-3.24,10.36-4.97,3.38-1.72,6.74-3.53,10-5.39,6.61-3.76,13.13-7.9,19.37-12.28,12.86-9.04,24.89-19.38,35.76-30.74,11.12-11.62,21.11-24.42,29.71-38.02,17.24-27.29,28.7-57.28,34.05-89.12,1.28-7.61,2.2-15.37,2.75-23.06.53-7.55.71-15.2.53-22.75-.36-15.45-2.22-30.94-5.53-46.05-6.83-31.18-19.53-60.27-37.76-86.46-9.01-12.95-19.34-25.06-30.7-36.01-11.06-10.66-23.2-20.31-36.08-28.68-3.17-2.06-6.41-4.06-9.65-5.95-3.22-1.89-6.54-3.72-9.84-5.46-6.73-3.53-13.7-6.77-20.71-9.64-14.47-5.92-29.59-10.45-44.93-13.47-31.68-6.23-63.78-6.1-95.4.4-15.11,3.11-29.99,7.68-44.23,13.61-6.92,2.88-13.8,6.13-20.44,9.65-2.93,1.55-5.85,3.18-8.72,4.86.61.46,1.22.92,1.83,1.38,13.01,9.94,25.15,21.17,36.07,33.38,11.19,12.51,21.22,26.17,29.8,40.6,16.89,28.38,28.12,59.31,33.38,91.92,1.27,7.86,2.19,15.87,2.73,23.8.53,7.8.72,15.72.54,23.54-.35,15.93-2.17,31.92-5.42,47.53-6.7,32.16-19.22,62.4-37.22,89.87-8.87,13.53-19.05,26.31-30.27,37.97-9.69,10.07-20.25,19.41-31.45,27.82ZM400.61,467.46l-1.99-1.37c-16.26-11.22-31.18-24.39-44.34-39.13-13.55-15.19-25.23-32.03-34.69-50.06-9.46-18.03-16.7-37.2-21.5-56.99-4.66-19.21-7.02-38.96-7.02-58.72s2.36-39.51,7.02-58.72c4.8-19.79,12.04-38.96,21.5-56.99,9.46-18.03,21.13-34.87,34.69-50.06,13.16-14.74,28.07-27.91,44.34-39.13l2.07-1.43,1.98,1.48s.03.02.05.03l1.37.95c.49.34.98.69,1.48,1.04.99.7,1.97,1.41,2.95,2.13,1.95,1.43,3.91,2.92,5.83,4.41,3.86,3.01,7.68,6.18,11.35,9.41,7.48,6.58,14.62,13.68,21.25,21.1,13.56,15.19,25.23,32.04,34.69,50.06,9.46,18.03,16.7,37.2,21.5,56.99,4.66,19.2,7.02,38.96,7.02,58.72s-2.36,39.52-7.02,58.72c-4.8,19.79-12.04,38.96-21.5,56.99-9.46,18.03-21.13,34.87-34.69,50.06-13.16,14.75-28.08,27.91-44.34,39.13l-1.99,1.37ZM400.61,63.42c-15.04,10.6-28.85,22.92-41.11,36.65-13.18,14.77-24.52,31.14-33.72,48.66-9.2,17.52-16.23,36.15-20.89,55.39-4.53,18.67-6.83,37.87-6.83,57.07s2.3,38.4,6.83,57.07c4.67,19.23,11.7,37.87,20.89,55.39,9.2,17.52,20.54,33.89,33.72,48.66,12.25,13.73,26.07,26.05,41.1,36.65,15.03-10.6,28.85-22.92,41.1-36.65,13.17-14.76,24.52-31.13,33.72-48.66,9.2-17.52,16.23-36.16,20.89-55.39,4.53-18.66,6.83-37.86,6.83-57.07s-2.3-38.41-6.83-57.07c-4.67-19.23-11.7-37.86-20.89-55.39-9.2-17.52-20.54-33.89-33.72-48.66-6.44-7.21-13.39-14.11-20.65-20.51-3.57-3.14-7.28-6.22-11.04-9.15-1.86-1.45-3.77-2.9-5.66-4.29-.95-.7-1.9-1.39-2.86-2.07-.3-.21-.59-.42-.89-.63Z"/>
      </g>
      <path class="cls-3" d="M319.03,265.05c3.4,2.87,6.77,5.76,10.11,8.69,3.09,2.7,6.15,5.43,9.19,8.2,2.8,2.55,5.56,5.12,8.3,7.73,2.52,2.4,5.01,4.82,7.47,7.28,3.4,3.4,6.74,6.87,10,10.42,2.83,3.09,5.6,6.24,8.27,9.48,2.32,2.81,4.56,5.67,6.7,8.62,1.86,2.55,3.63,5.15,5.3,7.83,1.41,2.26,2.73,4.55,3.95,6.91,1.07,2.07,2.05,4.17,2.94,6.32,1.49,3.64,2.66,7.32,3.45,11.18.34,1.66.61,3.32.8,5,.19,1.56.31,3.13.39,4.7.08,1.49.11,2.98.13,4.47,0,.72.01,1.45.01,2.17,0,.59,0,1.17,0,1.76v53.05h0v.02s0,0,0,0c0,0,0,0,0,0,0,0,0,0,0,0,0,0-.01-.01-.02-.01-.01-.01-.02-.02-.03-.03-.02-.02-.05-.04-.07-.06-.73-.63-1.46-1.26-2.18-1.9-1.45-1.28-2.89-2.58-4.3-3.9-2.86-2.66-5.64-5.39-8.36-8.2-5.49-5.69-10.68-11.67-15.53-17.91-9.71-12.49-18.05-25.98-24.87-40.24-13.7-28.61-21.07-59.84-21.63-91.56Z"/>
      <path class="cls-3" d="M319.14,253.2c.5-13.78,2.28-27.48,5.34-40.93,1.05-4.63,2.25-9.22,3.59-13.77.02-.07.04-.14.06-.21v-.03s.01,0,.01-.01c0,0,0,0,0,0,0,0,0,0,0,0,0,0,0,0,0,0,0,0,0,0,0,0h0s.06.05.09.08c.06.05.12.1.18.15.23.2.47.41.7.61.46.4.92.81,1.39,1.22.91.8,1.81,1.6,2.71,2.4,1.74,1.55,3.48,3.11,5.2,4.68,3.21,2.93,6.39,5.89,9.52,8.9,2.89,2.77,5.74,5.58,8.54,8.43,2.53,2.58,5.02,5.19,7.46,7.85,2.2,2.4,4.35,4.83,6.46,7.31,1.89,2.23,3.74,4.49,5.53,6.8,1.43,1.84,2.81,3.7,4.16,5.59,1.22,1.72,2.4,3.47,3.54,5.25,1.03,1.62,2.03,3.26,2.97,4.93.86,1.52,1.68,3.06,2.46,4.63,1.35,2.75,2.56,5.56,3.55,8.46.85,2.48,1.55,4.99,2.08,7.56.5,2.45.84,4.89,1.04,7.38.19,2.28.26,4.51.28,6.79.01,1.32.01,2.64.01,3.96v33.97h0s0,0,0,0h0s0,0,0,0c0,0,0,0,0,0,0-.01-.01-.02-.02-.04-.1-.19-.2-.38-.3-.57-.2-.38-.41-.76-.62-1.13-.42-.75-.84-1.5-1.28-2.24-.87-1.49-1.77-2.95-2.71-4.4-1.87-2.9-3.84-5.71-5.91-8.47-2.06-2.76-4.2-5.45-6.41-8.1-2.2-2.65-4.47-5.24-6.78-7.79s-4.67-5.06-7.06-7.54c-2.39-2.48-4.82-4.91-7.28-7.33-2.46-2.41-4.95-4.79-7.46-7.15-2.51-2.36-5.05-4.68-7.6-6.99-2.56-2.31-5.13-4.59-7.72-6.86-5.18-4.53-10.43-8.99-15.73-13.39Z"/>
      <path class="cls-3" d="M405.19,335.2v-34.52c0-.46,0-.91,0-1.37,0-1.8.02-3.6.09-5.4.1-2.67.32-5.25.72-7.89.46-3,1.14-5.91,2.05-8.81,1.09-3.46,2.47-6.8,4.07-10.06.94-1.9,1.94-3.77,3.01-5.6,1.19-2.06,2.45-4.06,3.77-6.04,1.58-2.37,3.23-4.68,4.94-6.95,1.94-2.57,3.94-5.07,6.01-7.54,2.33-2.78,4.73-5.5,7.18-8.18,2.76-3.01,5.58-5.97,8.45-8.87,2.35-2.38,4.73-4.72,7.13-7.04,2.61-2.52,5.26-5.01,7.93-7.47,2.89-2.67,5.82-5.3,8.77-7.91.77-.69,1.55-1.37,2.33-2.05.39-.35.79-.69,1.18-1.04.05-.04.1-.09.15-.13.03-.02.05-.04.07-.07l.02-.02s0,0,0,0h0s0,0,0,0h0s0,0,0,0c0,0,0,.01,0,.02.02.06.04.12.05.18.04.12.07.24.11.36.28.96.56,1.93.83,2.9,3.71,13.28,6.17,26.88,7.35,40.62.27,3.17.47,6.35.61,9.53.02.4.03.79.05,1.19,0,.05,0,.1,0,.15,0,0,0,0,0,0h0s0,0,0,0c0,0-.01,0-.02.01-.01,0-.02.02-.03.03-.02.02-.04.04-.06.05-.08.07-.17.14-.26.21-.17.14-.34.28-.51.42-.68.57-1.36,1.13-2.04,1.7-1.36,1.14-2.72,2.28-4.07,3.43-5.41,4.59-10.76,9.24-16.03,13.99-2.56,2.3-5.1,4.63-7.61,6.98-2.51,2.35-5.01,4.73-7.47,7.14s-4.9,4.84-7.29,7.31c-2.4,2.47-4.76,4.98-7.08,7.52-2.32,2.55-4.59,5.14-6.8,7.78-2.21,2.64-4.36,5.33-6.43,8.08-2.07,2.75-4.06,5.56-5.94,8.45-.94,1.44-1.85,2.9-2.73,4.38-.88,1.48-1.72,2.98-2.53,4.5Z"/>
      <path class="cls-3" d="M405.19,260.56v-35.52c0-2.48,0-4.97,0-7.45,0-1.15,0-2.29.02-3.44.03-2.44.13-4.8.36-7.23.26-2.68.68-5.3,1.29-7.92.71-3.05,1.66-6,2.81-8.91.88-2.21,1.86-4.36,2.94-6.48,1.23-2.43,2.58-4.79,4.01-7.1,1.65-2.67,3.4-5.26,5.24-7.8,2.12-2.93,4.34-5.79,6.63-8.58,1.88-2.3,3.82-4.55,5.79-6.77,2.18-2.46,4.41-4.87,6.67-7.25,1.22-1.28,2.45-2.55,3.69-3.82.32-.33.64-.65.96-.97.16-.16.32-.33.49-.49.08-.08.16-.16.24-.25.01-.01.02-.02.03-.03,0,0,.01-.01.02-.01,0,0,0,0,0,0h0s0,0,0,0h0s.02.04.03.05c.02.03.04.06.06.09.32.49.64.99.95,1.48,1.27,1.98,2.5,3.98,3.7,6,6.06,10.19,11.29,20.85,15.65,31.87,1.02,2.58,1.99,5.18,2.91,7.8.06.16.11.33.17.49.03.08.06.16.09.25.01.04.03.08.04.12,0,.02.01.04.02.06,0,0,0,.01,0,.02,0,0,0,0,0,0,0,0,0,0,0,0,0,0,0,0,0,0,0,0-.02.02-.03.02-.29.25-.57.5-.86.74-.57.5-1.15.99-1.72,1.49-1.14,1-2.28,1.99-3.42,3-4.55,4.01-9.03,8.08-13.45,12.23-2.16,2.03-4.3,4.07-6.41,6.14-2.12,2.07-4.21,4.16-6.29,6.27-2.07,2.12-4.12,4.25-6.13,6.42-2.01,2.17-4,4.37-5.94,6.6-1.94,2.23-3.85,4.5-5.7,6.81-1.86,2.31-3.66,4.65-5.4,7.05-1.74,2.4-3.41,4.84-5,7.34-1.59,2.5-3.09,5.05-4.47,7.67Z"/>
      <path class="cls-3" d="M396.03,217.46v43.09h0s0,0,0,0c0,0,0,0,0,0h0s0-.01,0-.02l-.02-.03-.07-.12c-.17-.33-.35-.65-.53-.98-1.42-2.6-2.95-5.13-4.56-7.62s-3.31-4.91-5.07-7.29c-1.76-2.38-3.58-4.72-5.45-7.01-1.87-2.3-3.79-4.55-5.74-6.78-1.96-2.22-3.95-4.41-5.97-6.57-2.02-2.16-4.08-4.29-6.16-6.4-2.08-2.11-4.18-4.19-6.31-6.25-4.27-4.14-8.62-8.2-13.03-12.19-2.2-2-4.42-3.97-6.66-5.94-1.12-.98-2.24-1.96-3.36-2.94-.56-.49-1.12-.97-1.69-1.46-.07-.06-.14-.12-.21-.18,0,0,0,0-.01-.01,0,0,0,0,0,0,0,0,0,0,0,0,0,0,0,0,0,0,0,0,0,0,0,0,0-.01,0-.02.01-.03,0-.02.01-.04.02-.06.01-.04.03-.08.04-.12.06-.16.11-.32.17-.48.11-.32.23-.64.34-.96,3.97-11.17,8.84-22,14.55-32.38,2.39-4.34,4.91-8.6,7.59-12.77.17-.26.33-.52.5-.78.08-.13.17-.26.25-.39l.13-.19s.02-.03.03-.05h0s0,0,0,0h0s0,0,0,0l.02.02s.02.02.03.03c.04.04.09.09.13.13.68.68,1.35,1.37,2.02,2.05,1.29,1.32,2.58,2.66,3.85,4,2.35,2.49,4.66,5.01,6.92,7.58,2.34,2.67,4.62,5.38,6.83,8.16,1.95,2.45,3.83,4.94,5.63,7.49,1.59,2.25,3.11,4.54,4.54,6.88,1.27,2.07,2.46,4.17,3.57,6.33,1.69,3.28,3.17,6.65,4.35,10.15.98,2.91,1.74,5.85,2.27,8.88.46,2.65.73,5.25.87,7.93.13,2.47.14,4.84.14,7.31Z"/>
      <path class="cls-3" d="M360.09,132.82c9.49-13.31,20.43-25.52,32.62-36.42.7-.62,1.39-1.24,2.1-1.85.35-.31.7-.61,1.06-.91l.13-.11s.02-.02.03-.03h0s0,0,0,0h0v84.54h0s0,0,0,0c0,0,0,0,0,0,0,0,0,0,0,0,0,0,0,0,0-.01,0,0,0-.01-.01-.02,0-.01-.01-.03-.02-.04-.01-.03-.03-.06-.04-.08-.06-.11-.12-.22-.18-.34-.12-.22-.24-.45-.36-.67-.24-.45-.49-.89-.74-1.34-1-1.78-2.06-3.52-3.15-5.25-1.1-1.72-2.23-3.42-3.4-5.09-1.17-1.67-2.37-3.32-3.61-4.95-2.47-3.26-5.04-6.42-7.69-9.52-2.66-3.1-5.39-6.13-8.18-9.11-2.79-2.98-5.64-5.9-8.53-8.79Z"/>
      <path class="cls-3" d="M441.13,132.82c-2.89,2.88-5.74,5.81-8.53,8.79-2.79,2.98-5.52,6.01-8.18,9.11-2.66,3.1-5.23,6.27-7.69,9.52-1.23,1.63-2.44,3.27-3.61,4.95-1.17,1.67-2.31,3.37-3.4,5.09-1.1,1.72-2.15,3.47-3.15,5.25-.25.44-.5.89-.74,1.34-.12.22-.24.45-.36.67-.06.11-.12.22-.18.34-.01.03-.03.06-.04.08,0,.01-.01.03-.02.04,0,0,0,.01-.01.02,0,0,0,0,0,.01,0,0,0,0,0,0,0,0,0,0,0,0,0,0,0,0,0,0h0v-84.53h0s0-.01,0-.01,0,0,0,0h0s.02.02.03.03l.13.11c.35.3.71.61,1.06.92.7.61,1.4,1.23,2.1,1.85,12.18,10.89,23.12,23.11,32.61,36.41Z"/>
      <path class="cls-3" d="M482.19,265.05c-.56,31.72-7.93,62.94-21.63,91.56-6.83,14.27-15.17,27.76-24.88,40.25-4.85,6.24-10.04,12.22-15.53,17.91-2.71,2.81-5.5,5.54-8.35,8.2-1.42,1.32-2.85,2.62-4.3,3.9-.72.64-1.45,1.27-2.18,1.9-.02.02-.05.04-.07.06-.01,0-.02.02-.03.03,0,0-.01.01-.02.01h0s0,0,0,0c0,0,0,0,0,0h0v-50.51c0-1.33,0-2.66,0-3.99,0-.73,0-1.46,0-2.19.01-1.5.04-3,.12-4.5.08-1.58.2-3.16.38-4.73.19-1.69.45-3.36.79-5.03.78-3.88,1.94-7.6,3.44-11.26.89-2.17,1.88-4.29,2.95-6.38,1.23-2.38,2.56-4.7,3.98-6.98,1.67-2.68,3.44-5.28,5.3-7.83,2.14-2.95,4.38-5.81,6.7-8.62,2.67-3.24,5.43-6.39,8.27-9.48,3.25-3.55,6.59-7.01,10-10.42,2.46-2.46,4.95-4.88,7.47-7.28,2.74-2.61,5.51-5.18,8.31-7.73,3.04-2.77,6.1-5.5,9.19-8.2,3.35-2.93,6.72-5.82,10.12-8.69Z"/>
      <path class="cls-1" d="M400.61,463.21c-16.05-11.08-30.73-24.03-43.71-38.58-13.38-14.99-24.87-31.57-34.2-49.36-9.34-17.79-16.46-36.66-21.2-56.19-4.6-18.96-6.92-38.39-6.92-57.89s2.32-38.94,6.92-57.89c4.74-19.53,11.86-38.4,21.2-56.19,9.34-17.79,20.83-34.37,34.2-49.36,6.56-7.35,13.55-14.3,20.95-20.81,3.64-3.2,7.37-6.3,11.19-9.28,1.89-1.48,3.81-2.93,5.74-4.35.96-.71,1.93-1.41,2.9-2.1.49-.35.97-.69,1.46-1.03.24-.17.49-.34.73-.51.12-.08.24-.17.37-.25.06-.04.12-.08.18-.13l.09-.06s.03-.02.05-.03c0,0,.01-.01.02-.02,0,0,0,0,.01,0h0s0,0,0,0c0,0,0,0,0,0h0c16.05,11.08,30.73,24.03,43.72,38.58,13.38,14.99,24.87,31.57,34.2,49.36s16.46,36.66,21.2,56.19c4.6,18.96,6.92,38.39,6.92,57.89s-2.32,38.94-6.92,57.89c-4.74,19.53-11.86,38.4-21.2,56.19-9.34,17.79-20.83,34.37-34.21,49.36-12.99,14.55-27.66,27.5-43.72,38.58ZM482.19,265.05c-3.4,2.87-6.77,5.76-10.11,8.69-3.09,2.7-6.15,5.43-9.19,8.2-2.79,2.55-5.56,5.12-8.3,7.73-2.52,2.4-5.01,4.82-7.47,7.28-3.4,3.4-6.74,6.87-10,10.42-2.83,3.09-5.6,6.24-8.27,9.48-2.32,2.81-4.56,5.67-6.7,8.62-1.86,2.55-3.63,5.15-5.3,7.83-1.42,2.28-2.75,4.59-3.98,6.98-1.08,2.09-2.07,4.21-2.96,6.38-1.5,3.67-2.66,7.38-3.44,11.27-.34,1.67-.6,3.34-.79,5.03-.18,1.57-.3,3.15-.38,4.73-.07,1.5-.1,3-.12,4.51,0,.73,0,1.46,0,2.19,0,1.33,0,2.66,0,3.99v50.49h0v.02s0,0,0,0c0,0,0,0,0,0h0s.01-.01.02-.02c.01,0,.02-.02.03-.03.02-.02.05-.04.07-.06.73-.63,1.46-1.26,2.18-1.9,1.45-1.28,2.89-2.58,4.31-3.9,2.86-2.66,5.64-5.39,8.35-8.2,5.49-5.69,10.68-11.66,15.53-17.91,9.71-12.49,18.05-25.98,24.87-40.24,13.7-28.61,21.07-59.84,21.63-91.56ZM319.03,265.05c.55,31.72,7.93,62.94,21.63,91.56,6.83,14.27,15.17,27.76,24.88,40.25,4.85,6.24,10.04,12.22,15.53,17.91,2.71,2.81,5.5,5.54,8.35,8.2,1.42,1.32,2.85,2.62,4.31,3.9.72.64,1.45,1.27,2.18,1.9.02.02.05.04.07.06.01,0,.02.02.03.03,0,0,.01.01.02.01,0,0,0,0,0,0,0,0,0,0,0,0h0v-53.06c0-.59,0-1.17,0-1.76,0-.72,0-1.45-.01-2.17-.01-1.49-.05-2.98-.13-4.47-.08-1.57-.21-3.14-.39-4.7-.2-1.68-.46-3.34-.8-5-.79-3.85-1.95-7.54-3.44-11.18-.88-2.15-1.87-4.25-2.94-6.32-1.22-2.36-2.54-4.65-3.95-6.91-1.67-2.68-3.44-5.28-5.3-7.83-2.14-2.95-4.38-5.81-6.7-8.62-2.67-3.24-5.43-6.39-8.27-9.48-3.25-3.55-6.59-7.02-10-10.42-2.46-2.46-4.95-4.88-7.47-7.28-2.74-2.61-5.51-5.18-8.31-7.73-3.04-2.77-6.1-5.5-9.19-8.2-3.35-2.93-6.72-5.82-10.12-8.69ZM319.14,253.2c5.3,4.4,10.55,8.86,15.74,13.39,2.59,2.27,5.17,4.55,7.73,6.86,2.56,2.31,5.09,4.64,7.61,6.99,2.51,2.35,5,4.73,7.46,7.14,2.46,2.41,4.89,4.85,7.28,7.32,2.39,2.47,4.75,4.98,7.06,7.54,2.31,2.55,4.57,5.14,6.78,7.79,2.2,2.65,4.34,5.34,6.41,8.1,2.06,2.76,4.04,5.57,5.9,8.47.93,1.45,1.84,2.91,2.71,4.4.44.74.86,1.49,1.28,2.24.21.38.42.75.62,1.13.1.19.2.38.3.57,0,.01.01.02.02.04,0,0,0,0,0,0,0,0,0,0,0,0,0,0,0,0,0,0s0,0,0,0h0v-33.99c0-1.32,0-2.64-.01-3.96-.02-2.29-.09-4.52-.28-6.8-.2-2.5-.54-4.93-1.04-7.39-.53-2.57-1.22-5.07-2.08-7.55-1-2.9-2.2-5.71-3.55-8.46-.77-1.57-1.59-3.11-2.45-4.63-.95-1.67-1.94-3.31-2.97-4.92-1.14-1.78-2.32-3.52-3.54-5.24-1.34-1.89-2.73-3.76-4.16-5.59-1.79-2.31-3.64-4.56-5.52-6.79-2.1-2.48-4.26-4.91-6.45-7.3-2.44-2.66-4.93-5.27-7.46-7.85-2.8-2.85-5.65-5.66-8.53-8.42-3.14-3.01-6.32-5.98-9.53-8.91-1.73-1.57-3.46-3.14-5.21-4.69-.9-.8-1.81-1.61-2.72-2.4-.46-.41-.92-.81-1.39-1.22-.23-.2-.47-.41-.7-.61-.06-.05-.12-.1-.18-.15-.03-.03-.06-.05-.09-.08,0,0,0,0,0,0,0,0,0,0,0,0,0,0,0,0,0,0,0,0,0,0,0,0,0,0,0,0,0,.01,0,0,0,.02,0,.03-.02.07-.04.14-.06.21-1.35,4.56-2.55,9.15-3.6,13.79-3.05,13.44-4.83,27.14-5.33,40.91ZM405.19,335.2c.81-1.52,1.65-3.02,2.53-4.5.88-1.48,1.79-2.94,2.73-4.38,1.88-2.89,3.87-5.7,5.94-8.45,2.07-2.75,4.22-5.44,6.43-8.08,2.21-2.64,4.48-5.23,6.8-7.78,2.32-2.55,4.68-5.05,7.08-7.52,2.4-2.47,4.83-4.91,7.29-7.31s4.95-4.78,7.47-7.14,5.05-4.68,7.61-6.98c5.27-4.75,10.62-9.4,16.03-13.99,1.35-1.15,2.71-2.29,4.07-3.43.68-.57,1.36-1.14,2.04-1.7.17-.14.34-.28.51-.43.08-.07.17-.14.26-.21.02-.02.04-.04.06-.05.01,0,.02-.02.03-.03,0,0,0,0,0,0,0,0,0,0,0,0h0s0-.02,0-.02c0-.05,0-.1,0-.15-.01-.4-.03-.79-.05-1.19-.13-3.18-.34-6.36-.61-9.53-1.18-13.74-3.64-27.33-7.35-40.61-.27-.97-.55-1.93-.83-2.89-.04-.12-.07-.24-.11-.36-.02-.06-.04-.12-.05-.18,0,0,0-.01,0-.02,0,0,0,0,0,0,0,0,0,0,0,0,0,0,0,0,0,0,0,0,0,0,0,0,0,0-.01.01-.02.02-.02.02-.05.04-.07.07-.05.04-.1.09-.15.13-.39.34-.79.69-1.18,1.04-.78.68-1.55,1.36-2.33,2.05-2.95,2.61-5.87,5.24-8.76,7.91-2.67,2.46-5.31,4.94-7.92,7.46-2.4,2.32-4.78,4.66-7.13,7.03-2.87,2.91-5.7,5.86-8.46,8.88-2.45,2.68-4.85,5.4-7.18,8.18-2.07,2.47-4.07,4.97-6.01,7.54-1.71,2.27-3.37,4.58-4.95,6.95-1.32,1.98-2.58,3.99-3.78,6.04-1.07,1.84-2.07,3.7-3.01,5.61-1.6,3.26-2.98,6.6-4.07,10.06-.91,2.9-1.59,5.81-2.05,8.81-.4,2.64-.62,5.23-.72,7.89-.07,1.8-.08,3.6-.09,5.4,0,.46,0,.92,0,1.38v34.51ZM405.19,260.56c1.39-2.62,2.88-5.17,4.47-7.67,1.59-2.5,3.26-4.94,5-7.34,1.74-2.4,3.54-4.74,5.4-7.05,1.85-2.31,3.76-4.57,5.7-6.81,1.94-2.23,3.93-4.43,5.94-6.6,2.01-2.17,4.06-4.31,6.13-6.42,2.07-2.12,4.17-4.2,6.29-6.27,2.12-2.07,4.26-4.11,6.41-6.14,4.42-4.15,8.91-8.23,13.46-12.24,1.14-1,2.28-2,3.42-3,.57-.5,1.14-.99,1.72-1.49.29-.25.57-.5.86-.74,0,0,.02-.02.03-.02,0,0,0,0,0,0,0,0,0,0,0,0,0,0,0,0,0,0,0,0,0-.01,0-.01,0-.02-.01-.04-.02-.06l-.04-.12c-.03-.08-.06-.16-.09-.25-.06-.16-.11-.33-.17-.49-.92-2.62-1.89-5.22-2.91-7.8-4.35-11.03-9.59-21.68-15.65-31.87-1.2-2.02-2.43-4.02-3.7-6-.32-.49-.63-.99-.95-1.48-.02-.03-.04-.06-.06-.09-.01-.01-.02-.03-.03-.05h0s0,0,0,0c0,0,0,0,0,0l-.02.02-.03.03c-.08.08-.16.16-.24.25-.16.16-.32.33-.49.49-.32.32-.64.65-.96.97-1.24,1.26-2.47,2.53-3.69,3.82-2.26,2.38-4.49,4.79-6.67,7.25-1.97,2.22-3.9,4.47-5.79,6.77-2.3,2.8-4.52,5.65-6.64,8.59-1.84,2.54-3.59,5.14-5.24,7.81-1.43,2.32-2.77,4.68-4.01,7.11-1.08,2.12-2.06,4.27-2.94,6.49-1.15,2.91-2.1,5.85-2.81,8.9-.61,2.63-1.03,5.24-1.29,7.92-.24,2.43-.33,4.79-.36,7.23-.02,1.15-.02,2.29-.02,3.44,0,2.48,0,4.97,0,7.45v35.52ZM396.03,217.46c0-2.47-.01-4.84-.14-7.31-.14-2.68-.41-5.28-.87-7.93-.53-3.03-1.29-5.97-2.27-8.88-1.18-3.5-2.66-6.87-4.35-10.15-1.11-2.16-2.3-4.26-3.57-6.33-1.44-2.35-2.95-4.63-4.54-6.88-1.8-2.55-3.68-5.04-5.63-7.49-2.21-2.78-4.49-5.49-6.83-8.15-2.26-2.57-4.57-5.1-6.92-7.59-1.27-1.35-2.56-2.68-3.85-4-.67-.69-1.35-1.37-2.03-2.06-.04-.04-.09-.09-.13-.13-.01-.01-.02-.02-.03-.03,0,0-.01-.01-.02-.02h0s0-.01,0-.01,0,0,0,0c-.01.02-.02.03-.03.05-.04.06-.08.13-.13.19-.08.13-.17.26-.25.39-.17.26-.34.52-.5.78-2.68,4.18-5.21,8.44-7.6,12.79-5.71,10.38-10.57,21.21-14.54,32.38-.11.32-.23.64-.34.96-.06.16-.11.32-.17.48-.01.04-.03.08-.04.12,0,.02-.01.04-.02.06,0,.01,0,.02-.01.03,0,0,0,0,0,0,0,0,0,0,0,0,0,0,0,0,0,0,0,0,0,0,.01.01.07.06.14.12.21.18.56.49,1.12.97,1.69,1.46,1.12.97,2.24,1.95,3.36,2.94,2.23,1.96,4.45,3.94,6.66,5.94,4.41,3.99,8.76,8.05,13.03,12.19,2.12,2.06,4.23,4.14,6.31,6.25,2.08,2.11,4.13,4.24,6.16,6.4,2.02,2.16,4.02,4.35,5.97,6.57,1.96,2.22,3.87,4.48,5.74,6.77,1.87,2.3,3.69,4.63,5.45,7.01,1.76,2.38,3.45,4.81,5.07,7.29,1.61,2.49,3.14,5.02,4.56,7.62.18.32.35.65.53.98l.07.12.02.03s0,.01,0,.02c0,0,0,0,0,0,0,0,0,0,0,0h0v-43.09ZM360.09,132.82c2.89,2.88,5.74,5.81,8.53,8.79,2.79,2.98,5.52,6.01,8.18,9.11,2.66,3.1,5.23,6.27,7.69,9.52,1.23,1.63,2.44,3.27,3.61,4.95,1.17,1.67,2.31,3.37,3.4,5.09,1.1,1.72,2.15,3.47,3.15,5.25.25.44.5.89.74,1.34.12.22.24.45.36.67.06.11.12.22.18.34.01.03.03.06.04.08,0,.01.01.03.02.04,0,0,0,.01.01.02,0,0,0,0,0,.01,0,0,0,0,0,0,0,0,0,0,0,0,0,0,0,0,0,0h0v-84.53h0s0-.01,0-.01,0,0,0,0h0s-.02.02-.03.03l-.13.11c-.35.3-.71.61-1.06.92-.7.61-1.4,1.23-2.1,1.85-12.18,10.89-23.12,23.11-32.61,36.41ZM441.13,132.82c-9.49-13.31-20.43-25.52-32.62-36.42-.7-.62-1.39-1.24-2.1-1.85-.35-.31-.7-.61-1.06-.91-.04-.04-.09-.08-.13-.11-.01,0-.02-.02-.03-.03,0,0,0,0,0,0,0,0,0,0,0,0h0v84.54h0s0,0,0,0c0,0,0,0,0,0,0,0,0,0,0,0,0,0,0,0,0-.01,0,0,0-.01.01-.02,0-.01.01-.03.02-.04.01-.03.03-.06.04-.08.06-.11.12-.22.18-.34.12-.22.24-.45.36-.67.24-.45.49-.89.74-1.34,1-1.78,2.06-3.52,3.15-5.25,1.1-1.72,2.23-3.42,3.4-5.09,1.17-1.67,2.37-3.32,3.61-4.95,2.47-3.26,5.04-6.42,7.69-9.52,2.66-3.1,5.39-6.13,8.18-9.11,2.79-2.98,5.64-5.9,8.53-8.79Z"/>
    </g>
  </g>
</svg>